{
  "accessors": [
    {
      "bufferView": 2,
      "componentType": 5126,
      "count": 66,
      "max": [
        0.074292875826358795,
        0.075108736753463745,
        0.25346648693084717
      ],
      "min": [
        -0.074292995035648346,
        -0.074929066002368927,
        -0.0040102899074554443
      ],
      "type": "VEC3"
    },
    {
      "bufferView": 2,
      "byteOffset": 792,
      "componentType": 5126,
      "count": 66,
      "max": [
        0.92524898052215576,
        0.92397016286849976,
        0.012101856060326099
      ],
      "min": [
        -0.92524909973144531,
        -0.92641085386276245,
        -0.99999505281448364
      ],
      "type": "VEC3"
    },
    {
      "bufferView": 3,
      "componentType": 5126,
      "count": 66,
      "max": [
        0.069750078022480011,
        0.99891775846481323,
        0.99992156028747559,
        1
      ],
      "min": [
        -0.58876609802246094,
        -0.9974290132522583,
        -0.031095080077648163,
        1
      ],
      "type": "VEC4"
    },
    {
      "bufferView": 1,
      "componentType": 5126,
      "count": 66,
      "max": [
        0.95229172706604004,
        0.95431309938430786
      ],
      "min": [
        0.75124925374984741,
        0.71084201335906982
      ],
      "type": "VEC2"
    },
    {
      "bufferView": 0,
      "componentType": 5125,
      "count": 66,
      "max": [
        65
      ],
      "min": [
        0
      ],
      "type": "SCALAR"
    },
    {
      "bufferView": 2,
      "byteOffset": 1584,
      "componentType": 5126,
      "count": 325,
      "max": [
        0.85838639736175537,
        0.89610111713409424,
        2.3046784400939941
      ],
      "min": [
        -0.85838651657104492,
        -0.72476202249526978,
        0.21127188205718994
      ],
      "type": "VEC3"
    },
    {
      "bufferView": 2,
      "byteOffset": 5484,
      "componentType": 5126,
      "count": 325,
      "max": [
        0.91730475425720215,
        0.94607454538345337,
        0.99874776601791382
      ],
      "min": [
        -0.91730517148971558,
        -0.81535369157791138,
        -0.5087398886680603
      ],
      "type": "VEC3"
    },
    {
      "bufferView": 3,
      "byteOffset": 1056,
      "componentType": 5126,
      "count": 325,
      "max": [
        0.60375148057937622,
        0.95488375425338745,
        0.92914193868637085,
        1
      ],
      "min": [
        -0.997505784034729,
        -0.79838287830352783,
        -0.93888407945632935,
        1
      ],
      "type": "VEC4"
    },
    {
      "bufferView": 1,
      "byteOffset": 528,
      "componentType": 5126,
      "count": 325,
      "max": [
        0.97920042276382446,
        0.98080360889434814
      ],
      "min": [
        0.00020628106722142547,
        0.00020628106722142547
      ],
      "type": "VEC2"
    },
    {
      "bufferView": 0,
      "byteOffset": 264,
      "componentType": 5125,
      "count": 327,
      "max": [
        324
      ],
      "min": [
        0
      ],
      "type": "SCALAR"
    }
  ],
  "asset": {
    "extras": {
      "author": "TheCrafter (https://sketchfab.com/thecrafter)",
      "license": "CC-BY-4.0 (http://creativecommons.org/licenses/by/4.0/)",
      "source": "https://sketchfab.com/3d-models/low-poly-pine-tree-aeb9fa13cbbd4c0ba0b9f7762b7781cb",
      "title": "Low-poly Pine Tree"
    },
    "generator": "Sketchfab-4.80.0",
    "version": "2.0"
  },
  "bufferViews": [
    {
      "buffer": 0,
      "byteLength": 1572,
      "byteOffset": 0,
      "name": "floatBufferViews",
      "target": 34963
    },
    {
      "buffer": 0,
      "byteLength": 3128,
      "byteOffset": 1572,
      "byteStride": 8,
      "name": "floatBufferViews",
      "target": 34962
    },
    {
      "buffer": 0,
      "byteLength": 9384,
      "byteOffset": 4700,
      "byteStride": 12,
      "name": "floatBufferViews",
      "target": 34962
    },
    {
      "buffer": 0,
      "byteLength": 6256,
      "byteOffset": 14084,
      "byteStride": 16,
      "name": "floatBufferViews",
      "target": 34962
    }
  ],
  "buffers": [
    {
      "byteLength": 20340,
      "uri": "scene.bin"
    }
  ],
  "materials": [
    {
      "doubleSided": true,
      "emissiveFactor": [
        0,
        0,
        0
      ],
      "name": "Trunk",
      "pbrMetallicRoughness": {
        "baseColorFactor": [
          0.19028566860000001,
          0.074067612800000002,
          0,
          1
        ],
        "metallicFactor": 0,
        "roughnessFactor": 0.78091097700000001
      }
    },
    {
      "doubleSided": true,
      "name": "Tree",
      "pbrMetallicRoughness": {
        "baseColorFactor": [
          0.055148000000000003,
          0.17335500000000001,
          0.016737100000000001,
          1
        ],
        "metallicFactor": 0,
        "roughnessFactor": 1
      }
    }
  ],
  "meshes": [
    {
      "name": "Tree_Trunk_0",
      "primitives": [
        {
          "attributes": {
            "NORMAL": 1,
            "POSITION": 0,
            "TANGENT": 2,
            "TEXCOORD_0": 3
          },
          "indices": 4,
          "material": 0,
          "mode": 4
        }
      ]
    },
    {
      "name": "Tree_Tree_0",
      "primitives": [
        {
          "attributes": {
            "NORMAL": 6,
            "POSITION": 5,
            "TANGENT": 7,
            "TEXCOORD_0": 8
          },
          "indices": 9,
          "material": 1,
          "mode": 4
        }
      ]
    }
  ],
  "nodes": [
    {
      "children": [
        1
      ],
      "name": "RootNode (gltf orientation matrix)",
      "rotation": [
        -0.70710678118654746,
        -0,
        -0,
        0.70710678118654757
      ]
    },
    {
      "children": [
        2
      ],
      "name": "RootNode (model correction matrix)"
    },
    {
      "children": [
        3
      ],
      "matrix": [
        1,
        0,
        0,
        0,
        0,
        0,
        1,
        0,
        0,
        -1,
        0,
        0,
        0,
        0,
        0,
        1
      ],
      "name": "1099ae9d80b149c6b7a24df2e064d66a.fbx"
    },
    {
      "children": [
        4
      ],
      "name": "RootNode"
    },
    {
      "children": [
        5,
        6
      ],
      "matrix": [
        100,
        0,
        0,
        0,
        0,
        -1.6292067939183141e-05,
        -99.999999999998678,
        0,
        0,
        99.999999999998678,
        -1.6292067939183141e-05,
        0,
        0,
        0,
        0,
        1
      ],
      "name": "Tree"
    },
    {
      "mesh": 0,
      "name": "Tree_Trunk_0"
    },
    {
      "mesh": 1,
      "name": "Tree_Tree_0"
    }
  ],
  "scene": 0,
  "scenes": [
    {
      "name": "OSG_Scene",
      "nodes": [
        0
      ]
    }
  ]
}

